<?xml version="1.0" standalone="no"?>
<!DOCTYPE svg PUBLIC "-//W3C//DTD SVG 20010904//EN"
 "http://www.w3.org/TR/2001/REC-SVG-20010904/DTD/svg10.dtd">
<svg version="1.0" xmlns="http://www.w3.org/2000/svg"
 width="691.000000pt" height="691.000000pt" viewBox="0 0 691.000000 691.000000"
 preserveAspectRatio="xMidYMid meet">
<metadata>
Created by potrace 1.14, written by Peter Selinger 2001-2017
</metadata>
<g transform="translate(0.000000,691.000000) scale(0.100000,-0.100000)"
fill="#000000" stroke="none">
<path d="M3249 6746 c-2 -2 -46 -7 -97 -10 -51 -4 -101 -9 -110 -10 -23 -5
-98 -15 -147 -21 -72 -8 -287 -54 -380 -81 -110 -31 -243 -73 -270 -84 -11 -4
-51 -20 -90 -35 -204 -78 -445 -200 -635 -323 -80 -52 -269 -188 -280 -201 -3
-4 -18 -17 -35 -30 -64 -49 -142 -120 -249 -226 -417 -415 -705 -913 -856
-1480 -16 -61 -26 -108 -45 -205 -6 -29 -22 -130 -30 -180 -27 -184 -27 -677
0 -805 2 -11 6 -38 9 -60 41 -313 171 -709 336 -1022 61 -115 146 -255 192
-318 4 -5 36 -48 69 -95 57 -79 111 -145 199 -245 63 -72 243 -246 330 -320
254 -216 575 -413 891 -548 104 -44 341 -130 409 -147 19 -5 53 -14 75 -19 50
-14 200 -48 240 -55 132 -24 189 -33 280 -43 93 -11 720 -10 815 0 66 7 261
39 315 51 11 3 52 11 90 20 118 25 309 83 452 137 124 46 383 162 415 185 7 5
33 20 58 34 147 78 324 196 482 322 134 107 142 114 282 254 124 123 138 139
216 234 25 30 47 57 50 60 25 22 230 325 230 339 0 5 3 11 8 13 19 8 181 335
235 473 75 192 147 453 172 620 3 17 11 73 19 125 11 72 14 177 11 435 -1 187
-6 358 -9 380 -4 22 -14 78 -22 125 -9 47 -18 96 -21 110 -2 14 -11 52 -20 85
-8 33 -17 71 -19 84 -10 50 -98 312 -134 396 -34 79 -146 305 -187 375 -74
128 -211 328 -278 407 -5 7 -14 18 -20 25 -75 99 -267 296 -395 407 -128 111
-128 111 -225 182 -386 281 -802 474 -1275 589 -19 5 -53 13 -75 18 -22 6 -85
18 -140 27 -55 9 -110 18 -123 20 -13 2 -53 7 -90 11 -37 3 -78 8 -92 11 -30
5 -526 13 -531 9z"/>
</g>
</svg>
